<svg xmlns="http://www.w3.org/2000/svg"
 xmlns:xlink="http://www.w3.org/1999/xlink"
 width="16px" height="25px"  viewBox="0 0 16 25">
<path fill-rule="evenodd"  fill="#000000"
 d="M2.4320374,13.5354 C2.4320374,13.5354 11.488861,22.564209 11.488861,22.564209 C12.065063,23.138916 12.999176,23.138916 13.574646,22.564209 C14.150543,21.990723 14.150543,21.059326 13.574646,20.485352 C13.574646,20.485352 5.5602417,12.495117 5.5602417,12.495117 C5.5602417,12.495117 13.574646,4.5063477 13.574646,4.5063477 C14.150543,3.932373 14.150543,3.0014648 13.574646,2.4274902 C12.998749,1.8522949 12.064514,1.8522949 11.488525,2.4274902 C11.488525,2.4274902 2.43161,11.456299 2.43161,11.456299 C2.1435547,11.743164 1.9995728,12.119873 1.9995728,12.495117 C1.9995728,12.87207 2.144104,13.248535 2.4320374,13.5354 Z"/>
</svg>